<svg xmlns="http://www.w3.org/2000/svg" viewBox="0 0 1920 4000" preserveAspectRatio="xMidYMid slice">
  <!-- Yellow blob - top left (brain-like curves) -->
  <path d="M 180 300 Q 120 220 200 180 Q 240 160 280 190 Q 320 220 300 260 Q 340 240 380 270 Q 420 300 400 350 Q 460 340 500 380 Q 540 420 500 470 Q 460 520 400 500 Q 380 540 320 550 Q 260 560 220 520 Q 180 480 200 430 Q 160 420 140 380 Q 120 340 180 300 Z" fill="#fde047" opacity="0.65"/>
  
  <!-- Orange blob - top right (irregular folds) -->
  <path d="M 1600 450 Q 1540 380 1620 340 Q 1680 320 1740 360 Q 1800 400 1780 450 Q 1840 440 1900 480 Q 1960 520 1940 580 Q 2000 600 2020 660 Q 2040 720 1980 750 Q 1920 780 1860 760 Q 1840 800 1760 810 Q 1680 820 1620 780 Q 1560 740 1580 680 Q 1520 660 1500 600 Q 1480 540 1600 450 Z" fill="#f97316" opacity="0.65"/>
  
  <!-- Red blob - upper middle (wavy contours) -->
  <path d="M 300 1100 Q 240 1040 320 1000 Q 360 980 400 1010 Q 440 1040 430 1080 Q 480 1060 540 1090 Q 600 1120 590 1170 Q 640 1180 680 1220 Q 720 1260 690 1310 Q 660 1360 600 1350 Q 580 1390 520 1400 Q 460 1410 410 1380 Q 360 1350 380 1300 Q 320 1280 280 1240 Q 240 1200 260 1150 Q 280 1100 300 1100 Z" fill="#dc2626" opacity="0.65"/>
  
  <!-- Green blob - middle right (cerebral curves) -->
  <path d="M 1550 1600 Q 1490 1540 1570 1500 Q 1620 1480 1670 1510 Q 1720 1540 1710 1590 Q 1760 1580 1820 1620 Q 1880 1660 1870 1720 Q 1920 1740 1960 1790 Q 2000 1840 1960 1890 Q 1920 1940 1850 1920 Q 1820 1960 1750 1970 Q 1680 1980 1620 1940 Q 1560 1900 1580 1840 Q 1520 1820 1480 1770 Q 1440 1720 1460 1660 Q 1480 1600 1550 1600 Z" fill="#16a34a" opacity="0.65"/>
  
  <!-- Yellow blob - lower middle (asymmetric organic) -->
  <path d="M 600 2400 Q 540 2340 620 2300 Q 680 2280 740 2320 Q 800 2360 790 2420 Q 850 2410 920 2450 Q 990 2490 980 2560 Q 1040 2580 1080 2640 Q 1120 2700 1070 2750 Q 1020 2800 950 2780 Q 920 2820 840 2830 Q 760 2840 700 2800 Q 640 2760 660 2700 Q 600 2680 560 2630 Q 520 2580 540 2520 Q 560 2460 600 2400 Z" fill="#fde047" opacity="0.65"/>
  
  <!-- Orange blob - lower left (flowing curves) -->
  <path d="M 250 3000 Q 190 2940 270 2900 Q 320 2880 370 2910 Q 420 2940 410 2990 Q 460 2980 520 3020 Q 580 3060 570 3120 Q 620 3140 660 3190 Q 700 3240 660 3290 Q 620 3340 550 3320 Q 520 3360 450 3370 Q 380 3380 320 3340 Q 260 3300 280 3240 Q 220 3220 180 3170 Q 140 3120 160 3060 Q 180 3000 250 3000 Z" fill="#f97316" opacity="0.65"/>
  
  <!-- Red blob - bottom right (convoluted shape) -->
  <path d="M 1650 3400 Q 1590 3340 1670 3300 Q 1720 3280 1770 3310 Q 1820 3340 1810 3390 Q 1860 3380 1920 3420 Q 1980 3460 1970 3520 Q 2020 3540 2060 3590 Q 2100 3640 2060 3690 Q 2020 3740 1950 3720 Q 1920 3760 1850 3770 Q 1780 3780 1720 3740 Q 1660 3700 1680 3640 Q 1620 3620 1580 3570 Q 1540 3520 1560 3460 Q 1580 3400 1650 3400 Z" fill="#dc2626" opacity="0.65"/>
  
  <!-- Small green blob - upper middle (compact brain fold) -->
  <path d="M 1000 700 Q 960 660 1000 630 Q 1040 610 1080 640 Q 1120 670 1110 710 Q 1150 700 1190 730 Q 1230 760 1220 800 Q 1180 820 1130 810 Q 1110 840 1060 850 Q 1010 860 970 830 Q 930 800 950 760 Q 920 750 900 720 Q 880 690 900 660 Q 920 630 1000 700 Z" fill="#16a34a" opacity="0.55"/>
</svg>
